<svg xmlns="http://www.w3.org/2000/svg" viewBox="0 0 600 200">
  <style>
    .cloud {
      animation: moveCloud 15s infinite linear;
    }
    .dino {
      animation: dinoHop 0.6s infinite;
    }
    @keyframes moveCloud {
      from { transform: translateX(600px); }
      to { transform: translateX(-100px); }
    }
    @keyframes dinoHop {
      0%, 100% { transform: translateY(0); }
      50% { transform: translateY(-20px); }
    }
  </style>
  
  <!-- Background -->
  <rect width="600" height="200" fill="#f8f9fa"/>
  
  <!-- Ground -->
  <line x1="0" y1="150" x2="600" y2="150" stroke="#333" stroke-width="2"/>
  
  <!-- Clouds -->
  <path class="cloud" d="M 20,80 Q 40,70 50,80 Q 60,70 70,80 L 70,90 L 20,90 Z" fill="#333"/>
  <path class="cloud" style="animation-delay: -8s" d="M 20,80 Q 40,70 50,80 Q 60,70 70,80 L 70,90 L 20,90 Z" fill="#333"/>
  
  <!-- Dino -->
  <g class="dino" transform="translate(100, 120)">
    <path d="M 0,0 L 0,-40 L 10,-40 L 10,-30 L 20,-30 L 20,-20 L 30,-20 L 30,0 Z" fill="#333"/>
    <rect x="5" y="-45" width="5" height="5" fill="#333"/>
  </g>
  
  <!-- Cactus -->
  <g transform="translate(400, 100)">
    <rect x="0" y="0" width="10" height="50" fill="#333"/>
    <rect x="-10" y="20" width="10" height="20" fill="#333"/>
    <rect x="10" y="15" width="10" height="25" fill="#333"/>
  </g>
</svg>
